# xmcd CD database file
#
# Track frame offsets:
#	150
#	14681
#	37607
#	60726
#	83967
#	105095
#	128673
#	150363
#	173645
#	191273
#	212384
#
# Disc length: 3122 seconds
#
# Revision: 0
# Processed by: cddbd v1.5.2PL0 Copyright (c) Steve Scherf et al.
# Submitted via: CDex 1.70beta2
#
DISCID=730c300b
DTITLE=Various Artist - Jazzy End
DYEAR=1900
DGENRE=Jazz
TTITLE0=やさしさに包まれたなら
TTITLE1=traveling
TTITLE2=PIECES OF A DREAM
TTITLE3=黄金の月
TTITLE4=リルハ リルハ
TTITLE5=WILL
TTITLE6=強く儚い者たち
TTITLE7=粉雪
TTITLE8=さよならCOLOR
TTITLE9=JOY
TTITLE10=陽のあたる場所
EXTD=
EXTT0=
EXTT1=
EXTT2=
EXTT3=
EXTT4=
EXTT5=
EXTT6=
EXTT7=
EXTT8=
EXTT9=
EXTT10=
PLAYORDER=
